Coordinates
version=1
nRows=29
nColumns=24
inDegrees=yes

Units are S.I. units (second, meters, Newtons, ...)
Angles are in degrees.

endheader
time	pelvis_tilt	pelvis_list	pelvis_rotation	pelvis_tx	pelvis_ty	pelvis_tz	hip_flexion_r	hip_adduction_r	hip_rotation_r	knee_angle_r	ankle_angle_r	subtalar_angle_r	mtp_angle_r	hip_flexion_l	hip_adduction_l	hip_rotation_l	knee_angle_l	ankle_angle_l	subtalar_angle_l	mtp_angle_l	lumbar_extension	lumbar_bending	lumbar_rotation
      1.02516667	     -3.82846779	     -1.97365691	     -4.35464489	     -0.11436050	      0.87644285	      0.32743228	    -13.36115285	      6.50699014	     -1.90032175	     -9.49731378	     22.32871284	     14.45773680	      9.79287855	     31.84275610	     -2.82253578	    -10.46964583	     -5.55827025	      5.26303795	     -2.05037519	      0.25137033	     -3.92513395	      1.43305734	     11.47332977
      1.02933333	     -3.86824211	     -1.85526766	     -4.54220396	     -0.10857448	      0.87544576	      0.32755492	    -13.39443399	      6.28700171	     -1.78864321	    -10.16345784	     22.48790215	     14.52967243	      9.95338559	     31.91884776	     -2.75172126	    -10.29379623	     -6.00083342	      5.11208720	     -2.07523896	      0.31470788	     -3.86941684	      1.21473648	     11.56332637
      1.03350000	     -3.89997255	     -1.71943820	     -4.72317521	     -0.10273565	      0.87452029	      0.32764738	    -13.41928846	      6.04346558	     -1.70286652	    -10.86306114	     22.60503174	     14.63538556	     10.14859450	     31.98411795	     -2.65934915	    -10.12367204	     -6.51072604	      4.91466982	     -2.14434041	      0.39589147	     -3.81376893	      0.97807643	     11.66010968
      1.03766667	     -3.82547566	     -1.53872698	     -4.88722480	     -0.09678587	      0.87383618	      0.32765817	    -13.54813872	      5.72546420	     -1.75757376	    -11.57437283	     22.63179103	     14.93224836	     12.56774937	     31.88791427	     -2.49146181	     -9.92677685	     -6.98007841	      4.54646724	     -2.40651530	      1.48348633	     -3.89479955	      0.69760971	     11.74286419
      1.04183333	     -3.89276080	     -1.40160885	     -5.03847167	     -0.09085387	      0.87296779	      0.32773682	    -13.53340791	      5.50040804	     -1.59367329	    -12.27518395	     22.60219738	     14.81692495	     12.65994345	     32.02396159	     -2.39504217	     -9.76178236	     -7.67557066	      4.35471519	     -2.48163075	      1.52457956	     -3.75777277	      0.44458760	     11.77943935
      1.04600000	     -3.89239226	     -1.23150777	     -5.19492208	     -0.08484439	      0.87228640	      0.32777172	    -13.56660320	      5.21820919	     -1.50083257	    -13.02284190	     22.54813880	     14.83999070	     12.80315604	     32.05137367	     -2.25355700	     -9.62021186	     -8.34145422	      4.02481944	     -2.66618160	      1.58178519	     -3.70148429	      0.15870388	     11.83483541
      1.05016667	     -3.87596412	     -1.05030078	     -5.31060392	     -0.07878660	      0.87166703	      0.32770094	    -13.59354576	      4.91611841	     -1.53544022	    -13.81601069	     22.47462476	     15.03080255	     13.22094072	     32.05826079	     -2.06365599	     -9.37177777	     -9.02196938	      3.60561873	     -3.10314307	      1.74459833	     -3.67657166	     -0.11864829	     11.91932626
      1.05433333	     -3.83863066	     -0.84306687	     -5.45144645	     -0.07263504	      0.87118506	      0.32770835	    -13.65394449	      4.59469061	     -1.41618940	    -14.58192594	     22.26834554	     14.94448092	     13.40459195	     32.03408740	     -1.87497367	     -9.28643806	     -9.73396429	      3.21994743	     -3.31586521	      1.80736567	     -3.65142590	     -0.46962589	     11.88577959
      1.05850000	     -3.80930669	     -0.64724193	     -5.53671893	     -0.06649076	      0.87070950	      0.32754879	    -13.65391730	      4.27445765	     -1.48671513	    -15.45147144	     22.07051073	     15.10175917	     14.13330491	     32.01162063	     -1.63580622	     -8.95591006	    -10.42635800	      2.71850769	     -3.99347976	      2.04360189	     -3.62820183	     -0.75599536	     11.92066173
      1.06266667	     -3.76579021	     -0.42329101	     -5.65542756	     -0.06022616	      0.87036619	      0.32751533	    -13.69339651	      3.93717036	     -1.37673052	    -16.26366575	     21.73613315	     14.97816953	     14.39160407	     31.99291860	     -1.42440509	     -8.94274208	    -11.20350157	      2.26111883	     -4.22249423	      2.11350653	     -3.57531057	     -1.13883691	     11.85920789
      1.06683333	     -3.70215470	     -0.21879352	     -5.70753097	     -0.05394984	      0.87007528	      0.32730673	    -13.72181073	      3.61177656	     -1.44306950	    -17.12791076	     21.26198461	     14.95270908	     20.07417134	     31.95633985	     -1.17039916	     -8.73194803	    -11.98028368	      1.75968637	     -4.80659378	      3.61541589	     -3.57392618	     -1.44870044	     11.80283309
      1.07100000	     -3.66564870	     -0.00367992	     -5.78876482	     -0.04763233	      0.86983298	      0.32717246	    -13.69857154	      3.28369712	     -1.39216665	    -18.03996356	     20.79908439	     14.86312837	     20.11695361	     31.95412289	     -0.94057744	     -8.66181462	    -12.79527110	      1.30967805	     -5.17487654	      3.61432431	     -3.51627533	     -1.79865804	     11.76629116
      1.07516667	     -3.62601549	      0.20529858	     -5.81938325	     -0.04132660	      0.86962910	      0.32688521	    -13.63404462	      2.95724000	     -1.45521563	    -19.03954679	     20.37501946	     14.86581196	     20.32297250	     31.94092348	     -0.66081483	     -8.40484339	    -13.57910301	      0.78441410	     -5.89095031	      3.62204323	     -3.47925581	     -2.10433115	     11.70694823
      1.07933333	     -3.57936789	      0.43556182	     -5.86886045	     -0.03492745	      0.86953087	      0.32667082	    -13.56991170	      2.60954708	     -1.45800899	    -20.03498239	     19.76086980	     14.79004747	     20.48853878	     31.92237915	     -0.39367987	     -8.32149601	    -14.39777933	      0.37519408	     -6.30767872	      3.62230354	     -3.42103301	     -2.48368863	     11.62469833
      1.08350000	     -3.54180925	      0.64625159	     -5.86906554	     -0.02857750	      0.86943926	      0.32630236	    -13.43735074	      2.27881921	     -1.56086662	    -21.14894730	     19.21595266	     14.77065135	     20.89300982	     31.91583358	     -0.09512940	     -8.07079376	    -15.20179893	     -0.10366960	     -7.02306381	      3.62023600	     -3.37816793	     -2.77580554	     11.51188365
      1.08766667	     -3.45624311	      0.88124233	     -5.86631354	     -0.02211565	      0.86950176	      0.32593526	    -13.35513735	      1.91055822	     -1.67906144	    -22.23381457	     18.41734129	     14.69350885	     25.93272689	     31.85097638	      0.21971438	     -7.93209383	    -16.02286453	     -0.40888127	     -7.50074851	      3.57807558	     -3.37634572	     -3.14607247	     11.41423074
      1.09183333	     -3.41443202	      1.08757989	     -5.86313709	     -0.01568366	      0.86956165	      0.32559658	    -13.18981830	      1.58964730	     -1.72185283	    -23.38539376	     17.60718748	     14.59635033	     25.97719143	     31.84773921	      0.48907650	     -7.83258717	    -16.88133836	     -0.67172234	     -7.87331706	      3.56681511	     -3.31400087	     -3.47756050	     11.30843544
      1.09600000	     -3.37917161	      1.30213077	     -5.83443845	     -0.00928743	      0.86964421	      0.32512956	    -12.94697849	      1.24315044	     -1.86595764	    -24.66877859	     16.85544000	     14.55554513	     26.15079712	     31.83434266	      0.80648143	     -7.61193264	    -17.69056213	     -0.97357761	     -8.45958036	      3.53726412	     -3.26152595	     -3.76741306	     11.15320324
      1.10016667	     -3.31314276	      1.53025925	     -5.79159487	     -0.00283797	      0.86982727	      0.32463551	    -12.72139213	      0.87373080	     -2.03008977	    -25.96373378	     16.01027391	     14.55236476	     26.52631553	     31.78253423	      1.14553912	     -7.41907740	    -18.50633201	     -1.16151790	     -9.02267354	      3.47735588	     -3.23875121	     -4.11446939	     10.99728998
      1.10433333	     -3.26224250	      1.75350992	     -5.74309126	      0.00358231	      0.87003697	      0.32410772	    -12.42871785	      0.50308518	     -2.20432864	    -27.33771491	     15.09640355	     14.53091216	     27.08042251	     31.73980538	      1.48099772	     -7.23421448	    -19.30882854	     -1.29256807	     -9.48699095	      3.38440619	     -3.20184150	     -4.44062583	     10.83217306
      1.10850000	     -3.16047418	      1.99102040	     -5.69272172	      0.01004584	      0.87039673	      0.32357470	    -12.16535394	      0.10259781	     -2.39879207	    -28.72720467	     14.00033586	     14.42073077	     31.50209404	     31.60979442	      1.83569462	     -7.07726140	    -20.05936830	     -1.29394145	     -9.75978006	      2.58127808	     -3.22626492	     -4.78491237	     10.71799748
      1.11266667	     -3.10232210	      2.19389624	     -5.62907665	      0.01643669	      0.87071436	      0.32299427	    -11.80519814	     -0.26077581	     -2.58963438	    -30.20170525	     12.93882094	     14.38976179	     31.54761724	     31.53878029	      2.15613310	     -6.91538551	    -20.83387657	     -1.27487427	    -10.04690659	      2.56191319	     -3.20337639	     -5.06628088	     10.56402140
      1.11683333	     -3.01857969	      2.41427556	     -5.55974395	      0.02283559	      0.87111738	      0.32241653	    -11.44244229	     -0.65116760	     -2.78980683	    -31.71064179	     11.81736600	     14.35392947	     31.61100276	     31.41409848	      2.50221612	     -6.75066127	    -21.56331142	     -1.16727477	    -10.30690904	      2.53928128	     -3.21864240	     -5.40765395	     10.42158384
      1.12100000	     -2.94939890	      2.64710895	     -5.48248310	      0.02917664	      0.87151360	      0.32172913	    -10.99903147	     -1.08475098	     -3.06110656	    -33.32091103	     10.71266083	     14.35788818	     31.76402882	     31.28500870	      2.88049730	     -6.56267273	    -22.23772328	     -1.09457735	    -10.67168546	      2.48349844	     -3.21138255	     -5.70244217	     10.21874712
      1.12516667	     -2.80889021	      2.84824183	     -5.39876094	      0.03552661	      0.87206387	      0.32110576	    -10.63637133	     -1.48087865	     -3.30401163	    -34.89214860	      9.48657754	     14.27523884	     31.80392205	     31.07396681	      3.21445165	     -6.45212520	    -22.93303282	     -0.81717951	    -10.82946726	      2.46900646	     -3.30800659	     -6.00006356	     10.12436904
      1.12933333	     -2.71503610	      3.11171829	     -5.28514388	      0.04181804	      0.87258582	      0.32032326	    -10.15932607	     -1.97747223	     -3.64922029	    -36.55783640	      8.24639219	     14.32889558	     32.53244850	     30.83811380	      3.67718891	     -6.13262791	    -23.42981484	     -0.74166969	    -11.29741912	      2.16202968	     -3.35488536	     -6.36005323	      9.83896623
      1.13350000	     -2.63552074	      3.32364110	     -5.22621419	      0.04803341	      0.87310950	      0.31969860	     -9.62689963	     -2.40867499	     -3.86441162	    -38.25177624	      6.94775402	     14.22487768	     32.59819399	     30.63943565	      4.00814903	     -6.04960566	    -24.00593500	     -0.42267028	    -11.34893944	      2.12884906	     -3.37846306	     -6.65647532	      9.71873582
      1.13766667	     -2.54195667	      3.53885896	     -5.14004783	      0.05420460	      0.87368167	      0.31901153	     -9.08648284	     -2.86116867	     -4.14453550	    -39.95605473	      5.61157170	     14.13565615	     32.65522414	     30.39307985	      4.36944353	     -5.91305474	    -24.50691461	     -0.11508223	    -11.46342732	      2.08994364	     -3.43135959	     -6.94910180	      9.56263563
      1.14183333	     -2.43653461	      3.75743516	     -5.04956251	      0.06032686	      0.87429194	      0.31830196	     -8.53411882	     -3.33107869	     -4.43559679	    -41.66970746	      4.24132304	     14.02545674	     32.68684991	     30.11072373	      4.74088169	     -5.77948750	    -24.96045179	      0.21847478	    -11.58159493	      2.05514692	     -3.50577629	     -7.23614821	      9.40132267
